<svg width="44" height="12" viewBox="0 0 44 12" fill="none" xmlns="http://www.w3.org/2000/svg">
<path d="M0.41 0.499999H2.36V9.35H7.85V11H0.41V0.499999ZM14.1041 11.15C13.0341 11.15 12.0691 10.92 11.2091 10.46C10.3491 9.99 9.67406 9.345 9.18406 8.525C8.69406 7.695 8.44906 6.77 8.44906 5.75C8.44906 4.73 8.69406 3.81 9.18406 2.99C9.67406 2.16 10.3491 1.515 11.2091 1.055C12.0691 0.584999 13.0341 0.349999 14.1041 0.349999C15.1741 0.349999 16.1391 0.584999 16.9991 1.055C17.8591 1.515 18.5341 2.155 19.0241 2.975C19.5141 3.795 19.7591 4.72 19.7591 5.75C19.7591 6.78 19.5141 7.705 19.0241 8.525C18.5341 9.345 17.8591 9.99 16.9991 10.46C16.1391 10.92 15.1741 11.15 14.1041 11.15ZM14.1041 9.44C14.8041 9.44 15.4341 9.285 15.9941 8.975C16.5541 8.655 16.9941 8.215 17.3141 7.655C17.6341 7.085 17.7941 6.45 17.7941 5.75C17.7941 5.05 17.6341 4.42 17.3141 3.86C16.9941 3.29 16.5541 2.85 15.9941 2.54C15.4341 2.22 14.8041 2.06 14.1041 2.06C13.4041 2.06 12.7741 2.22 12.2141 2.54C11.6541 2.85 11.2141 3.29 10.8941 3.86C10.5741 4.42 10.4141 5.05 10.4141 5.75C10.4141 6.45 10.5741 7.085 10.8941 7.655C11.2141 8.215 11.6541 8.655 12.2141 8.975C12.7741 9.285 13.4041 9.44 14.1041 9.44ZM28.996 5.63H30.841V9.815C30.301 10.245 29.671 10.575 28.951 10.805C28.231 11.035 27.491 11.15 26.731 11.15C25.661 11.15 24.696 10.92 23.836 10.46C22.976 9.99 22.301 9.345 21.811 8.525C21.321 7.705 21.076 6.78 21.076 5.75C21.076 4.72 21.321 3.795 21.811 2.975C22.301 2.155 22.976 1.515 23.836 1.055C24.706 0.584999 25.681 0.349999 26.761 0.349999C27.641 0.349999 28.441 0.494999 29.161 0.784999C29.881 1.075 30.486 1.5 30.976 2.06L29.746 3.26C28.946 2.46 27.981 2.06 26.851 2.06C26.111 2.06 25.451 2.215 24.871 2.525C24.301 2.835 23.851 3.27 23.521 3.83C23.201 4.39 23.041 5.03 23.041 5.75C23.041 6.45 23.201 7.08 23.521 7.64C23.851 8.2 24.301 8.64 24.871 8.96C25.451 9.28 26.106 9.44 26.836 9.44C27.656 9.44 28.376 9.26 28.996 8.9V5.63ZM38.3179 11.15C37.2479 11.15 36.2829 10.92 35.4229 10.46C34.5629 9.99 33.8879 9.345 33.3979 8.525C32.9079 7.695 32.6629 6.77 32.6629 5.75C32.6629 4.73 32.9079 3.81 33.3979 2.99C33.8879 2.16 34.5629 1.515 35.4229 1.055C36.2829 0.584999 37.2479 0.349999 38.3179 0.349999C39.3879 0.349999 40.3529 0.584999 41.2129 1.055C42.0729 1.515 42.7479 2.155 43.2379 2.975C43.7279 3.795 43.9729 4.72 43.9729 5.75C43.9729 6.78 43.7279 7.705 43.2379 8.525C42.7479 9.345 42.0729 9.99 41.2129 10.46C40.3529 10.92 39.3879 11.15 38.3179 11.15ZM38.3179 9.44C39.0179 9.44 39.6479 9.285 40.2079 8.975C40.7679 8.655 41.2079 8.215 41.5279 7.655C41.8479 7.085 42.0079 6.45 42.0079 5.75C42.0079 5.05 41.8479 4.42 41.5279 3.86C41.2079 3.29 40.7679 2.85 40.2079 2.54C39.6479 2.22 39.0179 2.06 38.3179 2.06C37.6179 2.06 36.9879 2.22 36.4279 2.54C35.8679 2.85 35.4279 3.29 35.1079 3.86C34.7879 4.42 34.6279 5.05 34.6279 5.75C34.6279 6.45 34.7879 7.085 35.1079 7.655C35.4279 8.215 35.8679 8.655 36.4279 8.975C36.9879 9.285 37.6179 9.44 38.3179 9.44Z" fill="black"/>
</svg>
