<svg width="1600" height="485" viewBox="0 0 1600 867" fill="none" xmlns="http://www.w3.org/2000/svg">
<path d="M680.914 -1347.66C703.622 -1360.78 730.241 -1365.43 756.051 -1360.79L1624.93 -1204.7C1653.76 -1199.52 1679.37 -1183.16 1696.19 -1159.17L2149.78 -512.248C2168.71 -485.244 2174.65 -451.219 2166 -419.395L1958.66 343.008C1950.97 371.273 1932.42 395.353 1907.06 410.002L1142.59 851.478C1119.88 864.592 1093.26 869.242 1067.45 864.606L198.568 708.514C169.738 703.335 144.124 686.971 127.308 662.987L-326.276 16.0632C-345.21 -10.9408 -351.155 -44.9657 -342.5 -76.7901L-135.157 -839.193C-127.471 -867.458 -108.923 -891.539 -83.5579 -906.187L680.914 -1347.66Z" fill="#DDE5FA"/>
</svg>
