<svg width="21" height="21" viewBox="0 0 21 21" fill="none" xmlns="http://www.w3.org/2000/svg">
<path d="M18.0591 8.34642C17.4439 8.34642 16.9025 8.60071 16.5046 8.99857C15.0404 7.98548 13.0675 7.33333 10.8814 7.2636L12.0175 2.14485L15.6351 2.95696C15.6351 3.8429 16.357 4.56478 17.2429 4.56478C18.1453 4.56478 18.8712 3.82239 18.8712 2.93646C18.8712 2.05052 18.1494 1.30814 17.2429 1.30814C16.6113 1.30814 16.0658 1.68958 15.7951 2.21048L11.8001 1.32454C11.5992 1.27122 11.4023 1.41478 11.349 1.61575L10.1021 7.2595C7.93237 7.34974 5.98002 8.00189 4.51166 9.01497C4.11381 8.60071 3.5519 8.34642 2.93666 8.34642C0.656195 8.34642 -0.0902891 11.4062 1.99741 12.4521C1.92358 12.7761 1.89077 13.1206 1.89077 13.4652C1.89077 16.9023 5.76264 19.6872 10.5164 19.6872C15.2906 19.6872 19.1624 16.9023 19.1624 13.4652C19.1624 13.1206 19.1255 12.7597 19.0353 12.4357C21.082 11.3857 20.3273 8.34642 18.0591 8.34642ZM5.30737 12.6695C5.30737 11.7671 6.02924 11.0411 6.93569 11.0411C7.82162 11.0411 8.5435 11.763 8.5435 12.6695C8.5435 13.5554 7.82162 14.2773 6.93569 14.2773C6.03334 14.2814 5.30737 13.5554 5.30737 12.6695ZM14.097 16.5044C12.604 17.9974 8.39174 17.9974 6.89877 16.5044C6.73471 16.3609 6.73471 16.1066 6.89877 15.9425C7.04233 15.799 7.29662 15.799 7.44018 15.9425C8.58041 17.1115 12.3621 17.132 13.5515 15.9425C13.6951 15.799 13.9494 15.799 14.0929 15.9425C14.2611 16.1066 14.2611 16.3609 14.097 16.5044ZM14.0642 14.2814C13.1783 14.2814 12.4564 13.5595 12.4564 12.6736C12.4564 11.7712 13.1783 11.0452 14.0642 11.0452C14.9665 11.0452 15.6925 11.7671 15.6925 12.6736C15.6884 13.5554 14.9665 14.2814 14.0642 14.2814Z" fill="#CED4E6"/>
</svg>
