<svg width="36" height="28" viewBox="0 0 36 28" fill="none" xmlns="http://www.w3.org/2000/svg">
<path d="M35.0626 3.43029C33.8075 3.9717 32.4417 4.36135 31.0348 4.5131C32.4955 3.64536 33.5893 2.27447 34.111 0.657634C32.7404 1.47298 31.2389 2.04472 29.6731 2.34748C29.0187 1.64786 28.2272 1.09051 27.348 0.710165C26.4687 0.329817 25.5206 0.13462 24.5626 0.136736C20.6866 0.136736 17.5694 3.27853 17.5694 7.134C17.5694 7.67541 17.635 8.21681 17.7417 8.73771C11.938 8.4342 6.76179 5.66154 3.32058 1.41642C2.69356 2.4874 2.36497 3.70684 2.36902 4.94787C2.36902 7.37599 3.60359 9.51701 5.48621 10.7762C4.37675 10.7325 3.29328 10.4275 2.3239 9.88615V9.97228C2.3239 13.3725 4.72742 16.1903 7.93074 16.8383C7.32928 16.9945 6.71055 17.0745 6.08914 17.0762C5.63386 17.0762 5.2032 17.0311 4.76843 16.9695C5.65437 19.7422 8.23425 21.7561 11.3063 21.8217C8.90281 23.7043 5.89226 24.8117 2.62332 24.8117C2.03679 24.8117 1.49539 24.7912 0.933472 24.7256C4.03425 26.7149 7.71335 27.8633 11.6755 27.8633C24.538 27.8633 31.5762 17.2074 31.5762 7.95842C31.5762 7.6549 31.5762 7.35138 31.5557 7.04787C32.9175 6.05119 34.111 4.81662 35.0626 3.43029Z" fill="#254FB5"/>
<path d="M35.0626 3.43029C33.8075 3.9717 32.4417 4.36135 31.0348 4.5131C32.4955 3.64536 33.5893 2.27447 34.111 0.657634C32.7404 1.47298 31.2389 2.04472 29.6731 2.34748C29.0187 1.64786 28.2272 1.09051 27.348 0.710165C26.4687 0.329817 25.5206 0.13462 24.5626 0.136736C20.6866 0.136736 17.5694 3.27853 17.5694 7.134C17.5694 7.67541 17.635 8.21681 17.7417 8.73771C11.938 8.4342 6.76179 5.66154 3.32058 1.41642C2.69356 2.4874 2.36497 3.70684 2.36902 4.94787C2.36902 7.37599 3.60359 9.51701 5.48621 10.7762C4.37675 10.7325 3.29328 10.4275 2.3239 9.88615V9.97228C2.3239 13.3725 4.72742 16.1903 7.93074 16.8383C7.32928 16.9945 6.71055 17.0745 6.08914 17.0762C5.63386 17.0762 5.2032 17.0311 4.76843 16.9695C5.65437 19.7422 8.23425 21.7561 11.3063 21.8217C8.90281 23.7043 5.89226 24.8117 2.62332 24.8117C2.03679 24.8117 1.49539 24.7912 0.933472 24.7256C4.03425 26.7149 7.71335 27.8633 11.6755 27.8633C24.538 27.8633 31.5762 17.2074 31.5762 7.95842C31.5762 7.6549 31.5762 7.35138 31.5557 7.04787C32.9175 6.05119 34.111 4.81662 35.0626 3.43029Z" fill="url(#paint0_linear)"/>
<defs>
<linearGradient id="paint0_linear" x1="43.8492" y1="7.2706" x2="13.0456" y2="-12.2529" gradientUnits="userSpaceOnUse">
<stop stop-color="#3171D2"/>
<stop offset="1" stop-color="#1D39A4"/>
</linearGradient>
</defs>
</svg>
