<svg width="1600" height="971" viewBox="0 0 1600 971" fill="none" xmlns="http://www.w3.org/2000/svg">
<path opacity="0.03" d="M865.954 -1333.74C890.168 -1343.8 917.164 -1344.97 942.158 -1337.04L1783.55 -1069.87C1811.47 -1061.01 1834.75 -1041.47 1848.32 -1015.51L2214.42 -315.35C2229.7 -286.124 2231.2 -251.616 2218.5 -221.178L1914.28 508.002C1903 535.034 1881.5 556.514 1854.45 567.758L1039.3 906.644C1015.08 916.711 988.089 917.88 963.095 909.944L121.703 642.778C93.7856 633.913 70.5035 614.373 56.9312 588.416L-309.167 -111.742C-324.448 -140.969 -325.942 -175.477 -313.244 -205.914L-9.02975 -935.094C2.24839 -962.127 23.7545 -983.606 50.8015 -994.851L865.954 -1333.74Z" fill="#375BD2"/>
</svg>
