<svg width="36" height="36" viewBox="0 0 36 36" fill="none" xmlns="http://www.w3.org/2000/svg">
<path d="M14.625 9.99023V11.8915H35.9803C35.9505 11.2784 35.8864 10.5032 35.6569 9.99023" fill="#EC1C24"/>
<path d="M34.65 8.08887H14.625V9.99012H35.6569C35.4285 9.2808 35.0887 8.63393 34.65 8.08887Z" fill="#E6E7E8"/>
<path d="M30.375 6.1875H14.625V8.08875H34.65C33.7112 6.91313 32.166 6.1875 30.375 6.1875Z" fill="#EC1C24"/>
<path d="M35.9803 11.8911H14.625V13.7924H36V12.5251C36 12.412 35.9927 12.3017 35.9893 12.1909C35.9871 12.1606 35.9837 12.0824 35.9803 11.8911Z" fill="#E6E7E8"/>
<path d="M14.625 15.6937H36V13.7925H14.625V15.6937Z" fill="#EC1C24"/>
<path d="M14.625 17.5951H36V15.6938H14.625V17.5951Z" fill="#E6E7E8"/>
<path d="M14.625 17.5952H36V19.4965H14.625V17.5952Z" fill="#EC1C24"/>
<path d="M0 19.4961V21.3973H36V19.4961H14.625H0Z" fill="#E6E7E8"/>
<path d="M0 21.3975H36V23.2987H0V21.3975Z" fill="#EC1C24"/>
<path d="M0.0028125 24.4683C0.0028125 24.4683 -0.00225 24.929 0.01125 25.2001H35.9888C36.0045 24.9222 35.9972 24.4683 35.9972 24.4683L36 23.2988H0L0.0028125 24.4683Z" fill="#E6E7E8"/>
<path d="M5.62498 30.9374H30.375C32.171 30.9374 33.6639 30.2849 34.6837 29.0024H1.31061C2.36361 30.3131 3.88461 30.9374 5.62217 30.9374" fill="#EC1C24"/>
<path d="M1.31346 29.0023H34.6866C35.1315 28.437 35.4637 27.7916 35.6653 27.1011H0.340332C0.545699 27.7896 0.876571 28.4341 1.31627 29.0023" fill="#E6E7E8"/>
<path d="M0.33748 27.1014H35.6625C35.8467 26.483 35.9562 25.8447 35.9887 25.2002H0.0112305C0.066918 25.8504 0.118668 26.3415 0.33748 27.1014Z" fill="#EC1C24"/>
<path d="M14.625 6.1875H5.625C1.89731 6.1875 0 8.95781 0 12.375V19.4963H14.625V6.1875Z" fill="#176496"/>
<path d="M1.57376 9.54893L1.87976 9.31381L2.1852 9.54893L2.06651 9.17093L2.37082 8.93975H1.99507L1.87864 8.56006L1.76276 8.93975H1.38757L1.69301 9.17093L1.57376 9.54893Z" fill="white"/>
<path d="M3.5955 9.54893L3.9015 9.31381L4.20694 9.54893L4.08881 9.17093L4.39256 8.93975H4.01738L3.90094 8.56006L3.78506 8.93975H3.40875L3.71419 9.17093L3.5955 9.54893Z" fill="white"/>
<path d="M5.82572 9.54893L6.13116 9.31381L6.43716 9.54893L6.31847 9.17093L6.62222 8.93975H6.24928L6.13116 8.56006L6.01472 8.93975H5.64178L5.94385 9.17093L5.82572 9.54893Z" fill="white"/>
<path d="M8.03983 9.54893L8.34526 9.31381L8.65126 9.54893L8.53314 9.17093L8.83689 8.93975H8.46001L8.34526 8.56006L8.22939 8.93975H7.85364L8.15851 9.17093L8.03983 9.54893Z" fill="white"/>
<path d="M10.2617 9.54893L10.5677 9.31381L10.8731 9.54893L10.755 9.17093L11.0593 8.93975H10.683L10.5671 8.56006L10.4512 8.93975H10.076L10.3798 9.17093L10.2617 9.54893Z" fill="white"/>
<path d="M2.64999 10.5361L2.95543 10.3015L3.26087 10.5361L3.14331 10.1587L3.44706 9.92746H3.07131L2.95487 9.54834L2.84068 9.92746H2.46381L2.76812 10.1587L2.64999 10.5361Z" fill="white"/>
<path d="M4.67209 10.5361L4.97753 10.3015L5.28296 10.5361L5.16484 10.1587L5.46859 9.92746H5.09059L4.97753 9.54834L4.86109 9.92746H4.4859L4.79021 10.1587L4.67209 10.5361Z" fill="white"/>
<path d="M6.90246 10.5361L7.20734 10.3015L7.51277 10.5361L7.39465 10.1587L7.69896 9.92746H7.32377L7.20734 9.54834L7.0909 9.92746H6.71515L7.01946 10.1587L6.90246 10.5361Z" fill="white"/>
<path d="M9.11531 10.5361L9.42131 10.3015L9.72731 10.5361L9.6075 10.1587L9.91237 9.92746H9.53719L9.42075 9.54834L9.30544 9.92746H8.92969L9.234 10.1587L9.11531 10.5361Z" fill="white"/>
<path d="M11.3399 10.5361L11.6431 10.3015L11.9486 10.5361L11.8293 10.1587L12.1342 9.92746H11.7596L11.6426 9.54834L11.5272 9.92746H11.1515L11.4558 10.1587L11.3399 10.5361Z" fill="white"/>
<path d="M12.5926 9.54893L12.898 9.31381L13.204 9.54893L13.0853 9.17093L13.3891 8.93975H13.0161L12.8975 8.56006L12.7816 8.93975H12.403L12.7107 9.17093L12.5926 9.54893Z" fill="white"/>
<path d="M1.54404 17.4487L1.85004 17.2164L2.15547 17.4487L2.03735 17.0741L2.3411 16.8424L1.96591 16.8435L1.84891 16.4644L1.73416 16.8435L1.35785 16.8424L1.66216 17.0741L1.54404 17.4487Z" fill="white"/>
<path d="M3.56612 17.4487L3.87156 17.2164L4.17756 17.4487L4.05887 17.0741L4.36262 16.8424L3.98799 16.8435L3.87099 16.4644L3.75568 16.8435L3.38049 16.8424L3.68424 17.0741L3.56612 17.4487Z" fill="white"/>
<path d="M5.79654 17.4487L6.10198 17.2164L6.40798 17.4487L6.28929 17.0741L6.59304 16.8424L6.2156 16.8435L6.10141 16.4644L5.98554 16.8435L5.61035 16.8424L5.91466 17.0741L5.79654 17.4487Z" fill="white"/>
<path d="M8.01047 17.4487L8.3159 17.2164L8.62134 17.4487L8.5049 17.0741L8.80697 16.8424L8.43122 16.8435L8.31534 16.4644L8.19947 16.8435L7.82428 16.8424L8.12803 17.0741L8.01047 17.4487Z" fill="white"/>
<path d="M10.232 17.4487L10.5379 17.2164L10.844 17.4487L10.7269 17.0741L11.029 16.8424L10.6538 16.8435L10.5374 16.4644L10.4221 16.8435L10.0463 16.8424L10.3501 17.0741L10.232 17.4487Z" fill="white"/>
<path d="M12.5629 17.4487L12.8683 17.2164L13.1743 17.4487L13.0556 17.0741L13.3599 16.8424L12.9825 16.8435L12.8677 16.4644L12.7519 16.8435L12.375 16.8424L12.681 17.0741L12.5629 17.4487Z" fill="white"/>
<path d="M1.57376 11.5244L1.87976 11.2893L2.1852 11.5244L2.06651 11.1464L2.37082 10.9153L1.99507 10.9164L1.87864 10.5361L1.76276 10.9164L1.38757 10.9153L1.69301 11.1464L1.57376 11.5244Z" fill="white"/>
<path d="M3.5955 11.5244L3.9015 11.2893L4.20694 11.5244L4.08881 11.1464L4.39256 10.9153L4.01738 10.9164L3.90094 10.5361L3.78506 10.9164L3.40875 10.9153L3.71419 11.1464L3.5955 11.5244Z" fill="white"/>
<path d="M5.82572 11.5244L6.13116 11.2893L6.43716 11.5244L6.31847 11.1464L6.62222 10.9153L6.24928 10.9164L6.13116 10.5361L6.01472 10.9164L5.64178 10.9153L5.94385 11.1464L5.82572 11.5244Z" fill="white"/>
<path d="M8.03983 11.5244L8.34526 11.2893L8.65126 11.5244L8.53314 11.1464L8.83689 10.9153L8.46001 10.9164L8.34526 10.5361L8.22939 10.9164L7.85364 10.9153L8.15851 11.1464L8.03983 11.5244Z" fill="white"/>
<path d="M10.2617 11.5244L10.5677 11.2893L10.8731 11.5244L10.755 11.1464L11.0593 10.9153L10.683 10.9164L10.5671 10.5361L10.4512 10.9164L10.076 10.9153L10.3798 11.1464L10.2617 11.5244Z" fill="white"/>
<path d="M2.64999 12.5122L2.95543 12.2776L3.26087 12.5122L3.14331 12.1347L3.44706 11.9024H3.07131L2.95487 11.5244L2.84068 11.9024H2.46381L2.76812 12.1347L2.64999 12.5122Z" fill="white"/>
<path d="M4.67209 12.5122L4.97753 12.2776L5.28296 12.5122L5.16484 12.1347L5.46859 11.9024H5.09059L4.97753 11.5244L4.86109 11.9024H4.4859L4.79021 12.1347L4.67209 12.5122Z" fill="white"/>
<path d="M6.90246 12.5122L7.20734 12.2776L7.51277 12.5122L7.39465 12.1347L7.69896 11.9024H7.32377L7.20734 11.5244L7.0909 11.9024H6.71515L7.01946 12.1347L6.90246 12.5122Z" fill="white"/>
<path d="M9.11531 12.5122L9.42131 12.2776L9.72731 12.5122L9.6075 12.1347L9.91237 11.9024H9.53719L9.42075 11.5244L9.30544 11.9024H8.92969L9.234 12.1347L9.11531 12.5122Z" fill="white"/>
<path d="M11.3399 12.5122L11.6431 12.2776L11.9486 12.5122L11.8293 12.1347L12.1342 11.9024H11.7596L11.6426 11.5244L11.5272 11.9024H11.1515L11.4558 12.1347L11.3399 12.5122Z" fill="white"/>
<path d="M12.5926 11.5244L12.898 11.2893L13.204 11.5244L13.0853 11.1464L13.3891 10.9153L13.0161 10.9164L12.8975 10.5361L12.7816 10.9164L12.403 10.9153L12.7107 11.1464L12.5926 11.5244Z" fill="white"/>
<path d="M1.54404 13.5L1.85004 13.2654L2.15547 13.5L2.03679 13.1231L2.3411 12.8913L1.96535 12.8925L1.84891 12.5122L1.73416 12.8925L1.35785 12.8913L1.66216 13.1231L1.54404 13.5Z" fill="white"/>
<path d="M3.56612 13.5L3.87156 13.2654L4.17756 13.5L4.05887 13.1231L4.36262 12.8913L3.98799 12.8925L3.87099 12.5122L3.75568 12.8925L3.38049 12.8913L3.68368 13.1231L3.56612 13.5Z" fill="white"/>
<path d="M5.79654 13.5L6.10198 13.2654L6.40741 13.5L6.28929 13.1231L6.59304 12.8913L6.2156 12.8925L6.10141 12.5122L5.98554 12.8925L5.61035 12.8913L5.91466 13.1231L5.79654 13.5Z" fill="white"/>
<path d="M8.01047 13.5L8.31534 13.2654L8.62134 13.5L8.5049 13.1231L8.80697 12.8913L8.43122 12.8925L8.31534 12.5122L8.19947 12.8925L7.82428 12.8913L8.12803 13.1231L8.01047 13.5Z" fill="white"/>
<path d="M10.232 13.5L10.5379 13.2654L10.8434 13.5L10.7269 13.1231L11.029 12.8913L10.6533 12.8925L10.5374 12.5122L10.4221 12.8925L10.0463 12.8913L10.3501 13.1231L10.232 13.5Z" fill="white"/>
<path d="M2.62009 14.4878L2.92552 14.2537L3.23096 14.4878L3.1134 14.1131L3.41659 13.8803H3.04084L2.92496 13.5L2.80965 13.8803H2.4339L2.73821 14.1131L2.62009 14.4878Z" fill="white"/>
<path d="M4.64238 14.4878L4.94781 14.2537L5.25325 14.4878L5.13513 14.1131L5.43888 13.8803H5.06257L4.94725 13.5L4.83138 13.8803H4.45563L4.7605 14.1131L4.64238 14.4878Z" fill="white"/>
<path d="M6.8731 14.4878L7.17742 14.2537L7.48342 14.4878L7.36304 14.1131L7.66904 13.8803H7.29385L7.17742 13.5L7.06154 13.8803H6.68579L6.9901 14.1131L6.8731 14.4878Z" fill="white"/>
<path d="M9.08428 14.4878L9.39141 14.2537L9.69741 14.4878L9.57928 14.1131L9.88247 13.8803H9.50728L9.39084 13.5L9.27553 13.8803H8.89978L9.20409 14.1131L9.08428 14.4878Z" fill="white"/>
<path d="M11.3063 14.4878L11.6134 14.2537L11.9194 14.4878L11.8007 14.1131L12.1056 13.8803H11.7304L11.6134 13.5L11.4975 13.8803H11.1218L11.4261 14.1131L11.3063 14.4878Z" fill="white"/>
<path d="M12.5629 13.5L12.8683 13.2654L13.1738 13.5L13.0556 13.1231L13.3599 12.8913L12.9825 12.8925L12.8677 12.5122L12.7519 12.8925L12.375 12.8913L12.681 13.1231L12.5629 13.5Z" fill="white"/>
<path d="M1.54404 15.4761L1.85004 15.2438L2.15547 15.4761L2.03679 15.0987L2.3411 14.8669L1.96535 14.868L1.84891 14.4878L1.73416 14.868L1.35785 14.8669L1.66216 15.0987L1.54404 15.4761Z" fill="white"/>
<path d="M3.56612 15.4761L3.87156 15.2438L4.17756 15.4761L4.05887 15.0987L4.36262 14.8669L3.98799 14.868L3.87099 14.4878L3.75568 14.868L3.38049 14.8669L3.68368 15.0987L3.56612 15.4761Z" fill="white"/>
<path d="M5.79654 15.4761L6.10198 15.2438L6.40741 15.4761L6.28929 15.0987L6.59304 14.8669L6.2156 14.868L6.10141 14.4878L5.98554 14.868L5.61035 14.8669L5.91466 15.0987L5.79654 15.4761Z" fill="white"/>
<path d="M8.01047 15.4761L8.31534 15.2438L8.62134 15.4761L8.5049 15.0987L8.80697 14.8669L8.43122 14.868L8.31534 14.4878L8.19947 14.868L7.82428 14.8669L8.12803 15.0987L8.01047 15.4761Z" fill="white"/>
<path d="M10.232 15.4761L10.5379 15.2438L10.8434 15.4761L10.7269 15.0987L11.029 14.8669L10.6533 14.868L10.5374 14.4878L10.4221 14.868L10.0463 14.8669L10.3501 15.0987L10.232 15.4761Z" fill="white"/>
<path d="M2.62009 16.4644L2.92552 16.2293L3.23096 16.4644L3.1134 16.0864L3.41659 15.8569H3.04084L2.92496 15.4761L2.80965 15.8569H2.4339L2.73821 16.0864L2.62009 16.4644Z" fill="white"/>
<path d="M4.64238 16.4644L4.94781 16.2293L5.25325 16.4644L5.13513 16.0864L5.43888 15.8569H5.06257L4.94725 15.4761L4.83138 15.8569H4.45563L4.7605 16.0864L4.64238 16.4644Z" fill="white"/>
<path d="M6.8731 16.4644L7.17742 16.2293L7.48342 16.4644L7.36304 16.0864L7.66904 15.8569H7.29385L7.17742 15.4761L7.06154 15.8569H6.68579L6.9901 16.0864L6.8731 16.4644Z" fill="white"/>
<path d="M9.08428 16.4644L9.39141 16.2293L9.69741 16.4644L9.57928 16.0864L9.88247 15.8569H9.50728L9.39084 15.4761L9.27553 15.8569H8.89978L9.20409 16.0864L9.08428 16.4644Z" fill="white"/>
<path d="M11.3063 16.4644L11.6134 16.2293L11.9194 16.4644L11.8007 16.0864L12.1056 15.8569H11.7304L11.6134 15.4761L11.4975 15.8569H11.1218L11.4261 16.0864L11.3063 16.4644Z" fill="white"/>
<path d="M12.5629 15.4761L12.8683 15.2438L13.1738 15.4761L13.0556 15.0987L13.3599 14.8669L12.9825 14.868L12.8677 14.4878L12.7519 14.868L12.375 14.8669L12.681 15.0987L12.5629 15.4761Z" fill="white"/>
</svg>
