<svg width="18" height="16" viewBox="0 0 18 16" fill="none" xmlns="http://www.w3.org/2000/svg">
<path d="M16.5637 2.54979L18 1.17579V0.875038H13.0245L9.4785 9.70104L5.44425 0.875038H0.22725V1.17579L1.905 3.19554C2.0685 3.34479 2.154 3.56304 2.13225 3.78279V11.72C2.184 12.0058 2.091 12.2998 1.89 12.5075L0 14.798V15.095H5.35875V14.7943L3.46875 12.5075C3.264 12.299 3.16725 12.0103 3.2085 11.72V4.85454L7.9125 15.0988H8.45925L12.504 4.85454V13.0153C12.504 13.2305 12.504 13.2748 12.363 13.4158L10.908 14.8235V15.125H17.967V14.8243L16.5645 13.451C16.4415 13.358 16.3778 13.202 16.404 13.0505V2.95029C16.3778 2.79804 16.4408 2.64204 16.5637 2.54979Z" fill="#CED4E7"/>
</svg>
